# xmcd
#
# Track frame offsets:
#	150
#	16922
#	31208
#	48428
#	68589
#	81883
#	99880
#	113491
#	130641
#	144780
#
# Disc length: 2126 seconds
#
# Revision: 0
# Processed by: cddbd v1.5.2PL0 Copyright (c) Steve Scherf et al.
# Submitted via: dBpowerAMP V4.0
#
DISCID=6a084c0a
DTITLE=Carpenter - Law of the Land
DYEAR=2008
DGENRE=folk punk
TTITLE0=A different Life
TTITLE1=You Can't keep a good man Down
TTITLE2=off the road
TTITLE3=Six shots
TTITLE4=Don't Go
TTITLE5=Until the Sun's Up
TTITLE6=In the country
TTITLE7=Help Me Out
TTITLE8=Tell Me
TTITLE9=Face the Rain
EXTD=
EXTT0=
EXTT1=
EXTT2=
EXTT3=
EXTT4=
EXTT5=
EXTT6=
EXTT7=
EXTT8=
EXTT9=
PLAYORDER=
